<?xml version="1.0" encoding="UTF-8" standalone="no"?>
<!-- Created with Inkscape (http://www.inkscape.org/) -->

<svg
   version="1.1"
   id="svg1"
   width="876.46185"
   height="644.6745"
   viewBox="0 0 876.46185 644.6745"
   sodipodi:docname="djavulsfagel_logo.svg"
   inkscape:version="1.4.2 (f4327f4, 2025-05-13)"
   xmlns:inkscape="http://www.inkscape.org/namespaces/inkscape"
   xmlns:sodipodi="http://sodipodi.sourceforge.net/DTD/sodipodi-0.dtd"
   xmlns="http://www.w3.org/2000/svg"
   xmlns:svg="http://www.w3.org/2000/svg">
  <defs
     id="defs1" />
  <sodipodi:namedview
     id="namedview1"
     pagecolor="#ffffff"
     bordercolor="#000000"
     borderopacity="0.25"
     inkscape:showpageshadow="2"
     inkscape:pageopacity="0.0"
     inkscape:pagecheckerboard="0"
     inkscape:deskcolor="#d1d1d1"
     showgrid="false"
     inkscape:zoom="0.91171875"
     inkscape:cx="314.24165"
     inkscape:cy="249.52871"
     inkscape:window-width="2560"
     inkscape:window-height="1369"
     inkscape:window-x="-8"
     inkscape:window-y="-8"
     inkscape:window-maximized="1"
     inkscape:current-layer="g1" />
  <g
     inkscape:groupmode="layer"
     inkscape:label="Image"
     id="g1"
     transform="translate(-202.44133,-298.9122)">
    <path
       style="fill:#000000"
       d="m 542.20938,942.36231 c -0.46815,-0.7575 0.65095,-7.8075 2.48687,-15.6667 1.83592,-7.8592 3.73219,-16.3894 4.21394,-18.9561 l 0.8759,-4.6667 -5.44191,6 c -2.99306,3.3 -6.47447,7.6558 -7.73649,9.6795 -2.23243,3.5798 -5.03785,4.2859 -5.03785,1.2679 0,-0.8233 3.6,-5.8095 8,-11.0802 11.03254,-13.2159 10.95705,-13.0951 8.96039,-14.3416 -1.32718,-0.8286 -1.13646,-1.7896 0.85839,-4.3257 2.41441,-3.0694 5.19087,-16.2965 12.98621,-61.8665 1.12902,-6.6 2.90715,-16.8 3.95141,-22.6667 5.78552,-32.50322 13.40698,-76.64497 19.91329,-115.33334 5.68954,-33.8316 9.06048,-62.18485 10.72043,-90.17046 1.01919,-17.18293 2.09267,-23.43492 4.14105,-24.11771 1.86981,-0.62327 3.39948,5.02871 1.8635,6.88545 -1.57432,1.90308 -3.83848,22.06938 -2.47783,22.06938 0.59574,0 1.08365,-1.35 1.08425,-3 6e-4,-1.65 0.89899,-7.3039 1.99643,-12.56423 1.98544,-9.51682 1.97791,-9.59943 -1.51913,-16.66666 -5.55838,-11.23301 -5.12325,-11.08724 -14.18034,-4.75055 -15.76228,11.02789 -57.8662,50.46324 -73.38231,68.7313 -3.42408,4.03137 -6.41435,5.15448 -6.4721,2.43085 -0.0127,-0.59728 4.04723,-5.38228 9.022,-10.63334 18.33127,-19.34935 23.82041,-25.36449 21.86769,-23.96319 -1.1,0.78937 -9.8,7.2433 -19.33333,14.34205 -9.53334,7.09876 -19.56915,14.51939 -22.30182,16.4903 -2.73267,1.97091 -4.98267,3.9933 -5,4.49421 -0.0173,0.5009 2.66848,3.12318 5.96848,5.82728 5.80759,4.75888 7.75876,8.61899 4.33334,8.57288 -0.91667,-0.0123 -4.02212,-2.41234 -6.90101,-5.33333 -2.87889,-2.921 -5.58661,-5.3109 -6.01716,-5.3109 -0.43055,0 -1.41557,1.35 -2.18894,3 -1.20403,2.56886 -0.74862,3.70107 3.16887,7.87824 5.41994,5.77922 5.36274,9.41266 -0.0808,5.13079 -1.99205,-1.56694 -4.17971,-2.50425 -4.86147,-2.08289 -0.68176,0.42135 -2.80377,-1.18966 -4.71557,-3.58002 l -3.476,-4.34612 -2.74185,3.66667 c -2.71627,3.63247 -6.51943,4.95828 -6.51943,2.27272 0,-0.76666 1.52041,-2.91434 3.37869,-4.77262 l 3.37868,-3.37868 -12.2818,-14.61088 -12.2818,-14.61088 -26.54464,26.3835 c -14.59955,14.51093 -37.43952,38.0835 -50.75547,52.3835 -13.31596,14.3 -29.36941,31.4 -35.67433,38 -42.28504,44.26406 -70.13135,74.02818 -73.24388,78.28818 -1.9911,2.7252 -4.01769,7.5252 -4.50353,10.6667 -1.4289,9.2393 -3.57553,14.8082 -5.11481,13.2689 -0.91787,-0.9179 -0.87144,-2.7424 0.14391,-5.6551 2.66608,-7.6479 1.86266,-8.7776 -2.9352,-4.1273 -3.75531,3.6398 -5.01035,6.5887 -8.19758,19.2615 -3.84992,15.3078 -5.38676,18.8865 -6.66494,15.5201 -0.73963,-1.9481 2.33646,-18.5906 3.90536,-21.1291 0.48513,-0.785 0.28708,-1.4272 -0.44012,-1.4272 -0.72719,0 -1.67291,1.1051 -2.1016,2.4558 -1.13366,3.5718 -6.95427,8.6439 -8.68914,7.5717 -1.3569,-0.8386 -1.16969,-2.4324 1.02126,-8.6942 0.84917,-2.4269 -13.72942,13.1667 -20.01863,21.4124 -4.06134,5.3247 -8.81295,8.0143 -8.10494,4.5876 0.94039,-4.5513 15.83404,-43.9599 21.66796,-57.3333 7.37939,-16.9162 17.34344,-41.99284 28.07899,-70.66668 3.5693,-9.53333 8.68572,-23.03333 11.36983,-30 7.74461,-20.10138 27.02729,-77.63364 32.62252,-97.33333 2.81186,-9.9 8.47253,-31.8 12.57927,-48.66667 4.10674,-16.86666 9.55489,-39.06666 12.10701,-49.33333 2.55212,-10.26667 4.63843,-19.13778 4.63625,-19.71358 -0.002,-0.5758 -1.16757,-0.42418 -2.58973,0.33694 -4.02533,2.15429 -5.24563,-1.30389 -1.3636,-3.86428 7.17516,-4.73237 10.61601,-8.46053 10.61601,-11.50243 0,-2.47346 -0.51439,-2.97592 -2.33333,-2.27918 -3.48754,1.33589 -37.79197,20.35048 -41.87249,23.20949 -4.2706,2.99219 -6.46084,3.16242 -6.46084,0.50217 0,-1.08765 3.15,-3.56186 7,-5.49825 9.89836,-4.97847 36.77743,-20.36253 42.33333,-24.2292 l 4.66667,-3.24781 -4.13509,0.73675 c -5.02833,0.8959 -9.86668,-0.21938 -9.85998,-2.2728 0.003,-0.83113 3.95221,-3.55229 8.77667,-6.04702 9.78228,-5.05841 10.48263,-6.18557 12.82614,-20.64258 1.6442,-10.14301 2.90349,-12.84365 5.00773,-10.73941 0.82063,0.82063 0.34892,4.87608 -1.31048,11.26666 -3.58476,13.80535 -3.57377,13.84929 2.66753,10.66521 6.43416,-3.28246 7.72385,-5.73823 13.31162,-25.34735 4.56489,-16.01951 6.0775,-19.21496 7.42878,-15.69357 0.44019,1.14712 -1.34014,8.35012 -3.95629,16.00666 -5.02943,14.71937 -5.50571,17.02025 -3.52319,17.02025 1.74494,0 27.6954,-14.85352 40.59644,-23.23658 5.96023,-3.87294 19.23678,-13.75479 29.50345,-21.95965 12.14583,-9.70665 19.48177,-14.70872 21,-14.31902 3.1557,0.81002 2.99343,0.35984 -1.86489,-5.17347 -5.29533,-6.03106 -3.48088,-9.35794 2.22148,-4.07317 4.29631,3.98168 5.39278,4.20685 6.49526,1.33384 0.70227,-1.83009 1.2937,-1.74588 4.68181,0.66667 2.1329,1.51876 4.32874,2.76138 4.87965,2.76138 0.5509,0 3.04679,1.5599 5.54641,3.46646 4.30989,3.28731 5.91138,3.45752 11.37361,1.20882 1.48818,-0.61265 2.33334,-0.35848 2.33334,0.70174 0,0.91428 -1.05,2.45939 -2.33334,3.43358 -2.15949,1.63929 -2.16475,1.77441 -0.0706,1.81366 1.2445,0.0233 6.26511,-2.98699 11.15691,-6.68958 4.8918,-3.70259 9.1977,-6.42847 9.56866,-6.0575 1.59848,1.59848 -1.35983,4.94243 -8.90591,10.06687 -4.44531,3.01876 -8.06517,5.91629 -8.04413,6.43896 0.021,0.52268 7.37104,6.19882 16.33334,12.61366 8.96229,6.41483 23.49508,18.24113 32.29508,26.28067 8.8,8.03954 16.3772,14.64104 16.83824,14.67 0.46103,0.029 1.53474,-1.62886 2.38603,-3.68404 1.28603,-3.10476 1.10326,-4.72956 -1.08072,-9.60766 -2.58522,-5.77426 -2.57219,-8.82329 0.0308,-7.21454 0.7279,0.44986 1.95796,2.40965 2.73347,4.35508 0.77551,1.94543 1.67741,2.82041 2.00422,1.9444 0.32682,-0.87601 -0.0447,-2.78656 -0.82559,-4.24568 -1.67184,-3.12391 -1.88409,-8.16157 -0.34383,-8.16157 0.59177,0 1.69481,1.65 2.4512,3.66667 l 1.37527,3.66666 1.51021,-3.33333 c 0.83062,-1.83333 5.06998,-12.43276 9.42079,-23.55429 4.35082,-11.12152 11.69085,-26.72152 16.31118,-34.66667 4.62034,-7.94514 10.76395,-18.89086 13.65248,-24.32383 4.74418,-8.92322 5.04006,-10.033 3.06073,-11.48032 -3.2223,-2.35621 -2.66818,-4.64156 1.12543,-4.64156 2.76971,0 4.09158,-1.53896 8.01676,-9.33333 5.84378,-11.60418 10.15761,-12.40868 5.36215,-1 -0.80926,1.92527 -0.27273,2.33333 3.06797,2.33333 3.64436,0 4.55307,-0.93371 9.09795,-9.34823 5.52342,-10.22623 10.30491,-12.12803 6.66705,-2.65177 -0.50636,1.31902 1.24007,3.47547 5.12916,6.33334 4.8076,3.53283 7.13573,4.33333 12.60285,4.33333 h 6.70591 l -3.31652,-7.49924 c -3.87205,-8.75541 -3.82527,-8.50076 -1.56167,-8.50076 0.96516,0 3.49886,3.64891 5.63043,8.10869 2.13158,4.45977 4.07971,7.49636 4.32917,6.74797 0.24947,-0.7484 -0.57342,-2.92811 -1.82864,-4.84382 -1.78966,-2.73136 -1.9323,-3.82803 -0.66092,-5.0813 1.77097,-1.74575 2.76062,-0.76793 7.03794,6.95384 2.2612,4.08208 5.64116,4.45727 8.01499,0.88969 1.67715,-2.52057 3.77191,1.08482 5.82831,10.03136 4.73925,20.61855 6.65888,24.3826 17.75151,34.80747 5.6881,5.34569 15.22289,13.61943 21.18841,18.3861 5.96552,4.76667 10.8706,9.41667 10.90018,10.33333 0.031,0.96014 1.7909,1.66667 4.15154,1.66667 3.1834,0 3.99839,0.52065 3.6524,2.33333 -0.38593,2.02198 -2.57849,2.4223 -16.43109,3 l -15.98574,0.66667 -10.41993,7.74023 c -5.73095,4.25713 -10.23095,8.21796 -10,8.80183 13.15452,33.25566 16.62032,41.43548 17.56056,41.44563 1.32111,0.0143 36.96494,-26.72579 59.90261,-44.93901 13.74172,-10.91134 15.66273,-12.92172 15.33333,-16.04661 -0.31616,-2.99938 -1.92726,-4.31096 -10.04324,-8.17614 -10.03068,-4.77705 -10.3291,-5.0512 -8.54981,-7.85465 0.81218,-1.27967 3.50437,-0.35039 10.97958,3.78991 13.81816,7.65348 15.81988,8.34166 16.80399,5.7771 0.60409,-1.57424 1.89871,-1.89341 5.18179,-1.2775 5.21045,0.97748 7.28219,-1.25721 3.71797,-4.01042 -1.35677,-1.04804 -5.01685,-2.57935 -8.13352,-3.4029 -3.209,-0.84796 -5.66667,-2.29614 -5.66667,-3.33909 0,-2.86028 4.26097,-2.19307 12.48433,1.95488 6.1931,3.12386 7.79099,3.47824 9.01782,2 0.82007,-0.98813 2.63868,-1.79659 4.04136,-1.79659 2.10825,0 2.31107,0.44703 1.17007,2.57901 -0.75913,1.41845 -1.38024,2.93956 -1.38024,3.38024 0,1.54325 6.08464,-2.44524 15.76628,-10.33481 6.42573,-5.23632 10.21647,-7.50836 11.08241,-6.64242 1.18639,1.1864 -10.57409,12.29662 -17.84869,16.86181 -1.28334,0.80536 -2.33334,1.9505 -2.33334,2.54475 0,0.59425 2.00664,-0.45007 4.45919,-2.32073 5.32638,-4.06262 6.20748,-4.18997 6.20748,-0.89715 0,1.37722 -1.35,3.40376 -3,4.50342 l -3,1.99938 4.82754,2.02316 c 10.39732,4.35736 34.5699,19.24135 48.98544,30.1622 8.33047,6.31096 17.47628,13.22866 20.32402,15.37267 2.84774,2.14401 5.56649,3.50943 6.04166,3.03425 0.47518,-0.47517 -0.75406,-5.75955 -2.73163,-11.74306 -3.37034,-10.1976 -3.69492,-14.52272 -1.08987,-14.52272 0.60914,0 3.07072,6.80926 5.47019,15.13168 4.12346,14.30205 4.61579,15.2524 8.97955,17.33334 6.87072,3.27641 8.99868,2.93142 7.93987,-1.28724 -2.3895,-9.52051 -2.43941,-11.17778 -0.33662,-11.17778 2.2461,0 2.57224,0.7968 5.03108,12.29143 0.93511,4.37146 2.82453,8.72643 4.42823,10.20675 1.53846,1.42009 11.49212,6.52369 22.11924,11.34133 10.62712,4.81764 19.50879,9.31962 19.73705,10.0044 1.15784,3.47353 -3.64889,2.44378 -14.3205,-3.06789 -12.70409,-6.5614 -15.35922,-7.22313 -16.54836,-4.12427 -0.58933,1.53576 -1.52702,1.69413 -4.14265,0.69967 -4.44807,-1.69116 -4.40759,-0.61881 0.70395,18.64858 5.95346,22.44092 14.619,56.51501 17.2934,68 7.83293,33.63785 28.21612,105.97468 40.20084,142.66666 8.1321,24.89692 30.5054,73.00448 55.8081,119.99998 15.7178,29.1932 21.2795,39.9841 21.2795,41.2867 0,3.5502 -4.3656,0.6321 -10.4025,-6.9533 -6.8193,-8.5685 -20.6535,-22.3334 -22.4459,-22.3334 -0.5544,0 0.8425,1.95 3.1042,4.3334 2.2618,2.3833 5.1335,6.3579 6.3816,8.8324 2.047,4.0586 2.0674,4.7009 0.208,6.5603 -1.8594,1.8594 -2.7264,1.3349 -8.8551,-5.3564 -4.8355,-5.2793 -7.5138,-7.2293 -9.2911,-6.7645 -1.9309,0.5049 -2.5957,-0.1773 -2.9315,-3.0086 -0.3023,-2.5479 -1.9941,-4.6454 -5.5624,-6.8962 l -5.128,-3.2345 0.9687,4.4101 c 0.5327,2.4256 2.1308,7.9503 3.5512,12.2772 1.8305,5.576 2.1682,8.2815 1.1594,9.2902 -2.2503,2.2504 -3.3345,0.029 -7.9479,-16.2853 -4.2746,-15.1158 -4.3338,-15.2229 -15.0995,-27.3333 -10.46647,-11.7738 -32.50475,-34.62378 -85.66957,-88.82478 -14.02662,-14.3 -37.93547,-39.28775 -53.13076,-55.52834 -15.1953,-16.24058 -29.66553,-31.08258 -32.15607,-32.9822 l -4.52825,-3.45387 -4.76844,6.63733 -4.76845,6.63732 9.94668,5.67822 c 5.47068,3.12301 9.96595,6.42821 9.98949,7.34488 0.074,2.88216 -3.27281,1.84179 -11.79547,-3.66667 -4.53843,-2.93333 -8.68146,-5.3328 -9.20671,-5.33215 -1.89579,0.002 -10.60013,10.1878 -16.23612,18.99882 -3.16628,4.95 -6.57333,9 -7.57122,9 -2.56918,0 -2.25023,-2.35858 0.85233,-6.30284 3.18119,-4.04423 3.37461,-5.69716 0.66666,-5.69716 -1.1,0 -2,-0.86459 -2,-1.92131 0,-3.6081 -2.87926,-3.70725 -6.51464,-0.22434 -1.9972,1.91344 -4.04844,3.47898 -4.55832,3.47898 -1.8999,0 -0.83613,-3.66897 1.73963,-6 1.46667,-1.32732 2.66667,-3.15963 2.66667,-4.07182 0,-0.91218 -6.75,-6.82748 -15,-13.14509 -8.25,-6.31762 -21.3,-16.57629 -29,-22.79705 -14.52619,-11.73558 -17.00534,-13.42515 -18.09709,-12.3334 -1.61423,1.61423 -19.9664,45.67076 -27.9748,67.1568 -4.87598,13.08193 -12.05523,30.5222 -15.95389,38.75615 l -7.08847,14.97084 4.41582,14.69123 c 3.88345,12.92009 8.95202,26.45935 14.7644,39.43901 11.78519,26.31754 52.05715,124.58774 53.00192,129.33334 0.14599,0.7333 -0.33456,1.3929 -1.06789,1.4656 -1.35134,0.1341 -2.84043,-3.3108 -17.92394,-41.4656 -14.1533,-35.8018 -23.90288,-59.1142 -27.48247,-65.7138 -1.87527,-3.4574 -3.03389,-5.0862 -2.5747,-3.6195 3.97081,12.683 14.51066,51.4776 17.93109,66 5.11519,21.7179 6.01609,24.2103 10.15722,28.1007 3.63754,3.4173 4.22552,6.5659 1.22613,6.5659 -1.1,0 -2,0.3525 -2,0.7833 0,0.4308 5.7,6.8643 12.66667,14.2968 11.35125,12.1102 14.67278,16.9264 11.66666,16.9167 -0.55,0 -6.1,-5.6692 -12.33333,-12.5943 -6.23333,-6.9251 -11.51207,-12.0874 -11.73052,-11.4719 -0.21845,0.6156 0.86902,4.633 2.41661,8.9277 4.17608,11.5888 4.5743,13.8119 2.46935,13.7856 -1.00216,-0.013 -3.27471,-3.4625 -5.05012,-7.6666 -1.7754,-4.2042 -4.9254,-9.0374 -7,-10.7406 -2.07459,-1.7031 -3.77199,-3.9531 -3.77199,-5 0,-1.0468 -1.05846,-1.9033 -2.35213,-1.9033 -1.48232,0 -3.23391,-2.0354 -4.73661,-5.504 -3.09298,-7.1393 -15.46338,-23.3358 -28.53961,-37.3668 -5.70453,-6.1211 -13.30263,-14.4292 -16.88468,-18.4626 -9.78104,-11.0133 -25.21286,-26.6666 -26.28927,-26.6666 -0.97904,0 -8.88067,18.0864 -10.48515,24 -1.0202,3.7601 -4.8129,4.5978 -4.52736,1 0.10185,-1.2834 -0.64815,-2.3334 -1.66667,-2.3334 -1.01852,0 -1.85185,-0.9354 -1.85185,-2.0787 0,-3.7326 -2.43477,-0.7354 -15.00729,18.4739 -15.38112,23.5006 -25.77945,41.8227 -33.07065,58.2715 -6.47668,14.6112 -6.23157,14.2238 -7.92683,12.5286 -0.82106,-0.8211 -0.86337,-5.9031 -0.11581,-13.9112 0.64781,-6.9396 0.94783,-12.8595 0.66671,-13.1555 -0.28112,-0.2959 -1.42705,1.6541 -2.54652,4.3334 -2.32057,5.5539 -4.26304,6.1937 -5.84235,1.9244 -1.2431,-3.3604 -1.90226,-0.9693 -6.96914,25.2803 -2.73535,14.1708 -3.89019,16.8455 -5.88191,13.6228 z m 28.56686,-38.0733 c 1.76352,-4.0727 6.89269,-13.8124 11.39815,-21.6439 17.60471,-30.6006 17.088,-29.0276 5.55324,-16.9056 -5.58246,5.8667 -12.49199,13.6667 -15.35452,17.3333 -4.94215,6.3305 -5.2286,7.2214 -5.68049,17.6667 -0.26174,6.05 -0.17144,10.9898 0.20066,10.9772 0.37211,-0.013 2.11944,-3.3549 3.88296,-7.4277 z m 140.94154,-52.0688 c -6.54813,-25.9217 -15.07767,-54.6622 -15.34945,-51.7205 -0.0725,0.7848 2.82686,11.8848 6.44303,24.6667 3.61617,12.7819 7.89512,28.5108 9.50878,34.9532 1.61366,6.4424 3.18866,11.4587 3.50001,11.1474 0.31135,-0.3114 -1.53472,-8.8824 -4.10237,-19.0468 z m -114.03086,-18.5612 c 12.0356,-13.6109 22.90134,-26.7214 24.14608,-29.1344 l 2.26316,-4.3874 -4.06019,-3.0018 c -4.57523,-3.3826 -3.52138,-6.7681 1.30307,-4.1861 3.56879,1.91 4.2308,1.8395 4.2308,-0.4504 0,-1.049 1.34387,-2.099 2.98638,-2.3333 3.98698,-0.5689 4.50261,-4.32161 1.09618,-7.97799 -3.497,-3.75359 -1.40547,-6.7253 2.34471,-3.33144 2.38916,2.16216 2.64105,1.88747 6.20347,-6.76484 2.04226,-4.96018 5.41277,-12.91851 7.49002,-17.68517 2.07726,-4.76667 5.93351,-14.28983 8.56945,-21.16259 l 4.79262,-12.49592 -7.36318,-20.83741 c -8.96816,-25.37947 -19.84179,-53.83887 -27.06521,-70.83742 -2.96043,-6.96666 -5.67867,-13.56666 -6.04052,-14.66666 -0.36185,-1.1 -1.07233,1.6 -1.57883,6 -1.77737,15.43998 -4.6428,31.00024 -9.95551,54.06172 -7.47457,32.44578 -11.74576,53.14117 -14.02132,67.93828 -1.07136,6.96666 -3.24006,19.86666 -4.81934,28.66666 -1.57928,8.8 -3.39619,19.29998 -4.03759,23.33338 -0.6414,4.0333 -2.10616,12.7333 -3.25502,19.3333 -1.14887,6.6 -2.40787,14.4 -2.79778,17.3333 -0.38992,2.9334 -1.27285,8.5936 -1.96207,12.5782 -1.24869,7.2192 -1.65866,14.7552 -0.80271,14.7552 0.24773,0 10.29773,-11.1362 22.33333,-24.7472 z m -369.04816,2.0805 c 7.35282,-9.1667 13.88771,-17.3492 14.52199,-18.1833 0.63428,-0.8341 2.65014,-7.4176 4.47969,-14.6299 1.82955,-7.2123 4.48538,-17.02982 5.90185,-21.81671 1.41647,-4.78689 5.03622,-18.30343 8.04389,-30.03677 3.00767,-11.73333 9.0344,-35.24258 13.39274,-52.24277 4.35834,-17.00019 7.90187,-31.70019 7.87451,-32.66666 -0.0274,-0.96648 -3.87566,8.74277 -8.55179,21.5761 -19.19865,52.68946 -30.05753,80.76539 -48.73282,126.00001 -7.1252,17.2584 -15.99898,41.1767 -15.99898,43.1234 0,1.6816 6.96642,-6.0354 19.06892,-21.1234 z m 464.88733,6.4739 c -2.90454,-11.398 -7.00918,-25.7455 -11.76973,-41.1406 -1.47398,-4.7666 -3.65972,-12.5666 -4.85719,-17.33331 -3.41744,-13.60347 -10.25941,-34.66667 -11.26079,-34.66667 -1.20245,0 -4.27292,6.4617 -12.90343,27.15479 l -7.15478,17.15479 12.88193,17.5119 c 7.08506,9.6315 17.07133,22.0119 22.19169,27.5119 5.12037,5.5 10.55963,11.6846 12.08724,13.7436 3.88355,5.2345 4.0652,2.9354 0.78506,-9.9364 z m 355.87691,-33.8136 c -16.2008,-30.84496 -34.2366,-67.31512 -38.4269,-77.70306 -4.0381,-10.01093 -2.3765,-1.55537 5.3465,27.20616 4.5048,16.77679 9.2882,34.6617 10.6298,39.7443 2.4178,9.16 2.6006,9.4011 20.8616,27.509 10.1324,10.0474 18.5735,17.8861 18.758,17.4193 0.1845,-0.4669 -7.5415,-15.8459 -17.169,-34.1757 z m -806.53962,20.3397 c 0.0219,-0.55 -0.41021,-0.9815 -0.96021,-0.9588 -1.28846,0.053 -9.6793,11.1713 -9.62688,12.7559 0.0459,1.3889 10.52714,-10.2903 10.58709,-11.7971 z m 805.17582,8.6299 c -3.6384,-5.1317 -14.5625,-16.6478 -15.1935,-16.0169 -0.722,0.7221 15.7805,19.6902 16.5268,18.996 0.2582,-0.2401 -0.3418,-1.5807 -1.3333,-2.9791 z m -399.25411,-34.3329 c -1.97291,-2.5866 -3.90971,-4.3803 -4.30398,-3.9861 -0.64154,0.6416 6.21768,8.6891 7.40604,8.6891 0.26678,0 -1.12914,-2.1163 -3.10206,-4.703 z m -354.77233,-43.2939 c -1.00024,-1.00727 -24.45077,23.60026 -24.38949,25.59281 0.0294,0.95558 5.67731,-4.26259 12.55093,-11.59592 6.87361,-7.33333 12.20097,-13.63193 11.83856,-13.99689 z m 712.04504,15.66356 c -1.0682,-4.58334 -5.8653,-21.83334 -10.66034,-38.33334 -8.77648,-30.20081 -15.68926,-54.71058 -22.37532,-79.33333 -3.42894,-12.62775 -10.06053,-31.31458 -25.07823,-70.66667 -30.0135,-78.6468 -36.94488,-99.23148 -40.83222,-121.26282 l -2.2506,-12.75513 -15.31229,-7.75426 c -8.42176,-4.26484 -28.58224,-14.7409 -44.80105,-23.28015 -16.69122,-8.78796 -31.8793,-15.90815 -34.99717,-16.40672 -5.07001,-0.81073 -6.38411,-0.31268 -16.51125,6.2579 -14.48653,9.39899 -74.33616,54.34634 -74.33616,55.8268 0,1.77024 4.10227,10.92345 14.04316,31.3339 l 9.07186,18.62618 2.05136,-5.62618 c 1.12825,-3.0944 2.89732,-5.62618 3.93126,-5.62618 1.98239,0 1.86493,1.06436 -1.28287,11.62465 -1.65411,5.54926 -0.71944,9.32985 1.44199,5.83258 0.61147,-0.98938 1.7837,-1.38359 2.60496,-0.87603 0.92112,0.56929 2.49257,-1.40858 4.10169,-5.16251 1.43467,-3.34695 3.22981,-6.08536 3.98921,-6.08536 2.08638,0 1.75204,1.54748 -2.9046,13.44403 l -4.28532,10.94789 6.2958,11.91439 c 5.69342,10.77442 6.64498,14.36036 3.81067,14.36036 -0.5354,0 -3.27976,-4.60204 -6.09858,-10.22675 l -5.12513,-10.22674 -2.0157,3.8471 c -1.81659,3.46709 -1.79908,4.22454 0.17727,7.66813 4.00567,6.97947 2.00615,12.26285 -2.30924,6.10177 -1.95367,-2.78926 -2.02176,-2.75272 -4.08846,2.1936 -5.083,12.16533 -6.20904,16.87601 -4.52042,18.91067 2.66004,3.20516 33.81011,25.44418 52.32292,37.35499 19.43655,12.50514 18.68231,12.48006 25.49914,0.84802 1.87079,-3.19227 4.12615,-5.82237 5.0119,-5.84467 0.88576,-0.0223 0.56046,-0.65212 -0.72287,-1.39959 -1.59909,-0.93138 -2.33333,-3.01647 -2.33333,-6.62612 0,-5.78341 1.62355,-6.62438 5.68786,-2.94623 2.45628,2.2229 2.69716,2.16663 5.7077,-1.33334 3.80256,-4.42073 4.60444,-4.54627 4.60444,-0.72084 0,2.28148 0.35555,2.57777 1.6,1.33333 2.22472,-2.22472 5.06666,-2.00035 5.06666,0.4 0,1.1 0.6,2 1.33334,2 0.73333,0 1.33371,1.05 1.33417,2.33333 0.002,4.71807 17.14357,24.13582 58.55871,66.33334 14.39473,14.66666 32.40823,33.41602 40.03,41.66522 7.62178,8.24921 14.09862,14.75771 14.393,14.46334 0.8871,-0.8871 -33.5523,-44.03645 -52.78011,-66.12856 -23.31456,-26.78764 -53.63528,-57.554 -62.61029,-63.53051 -6.62516,-4.41173 -8.5665,-8.14699 -4.87323,-9.37642 1.79644,-0.59801 52.16104,50.36999 69.40871,70.24026 24.12995,27.79906 49.39525,59.54649 65.00981,81.68891 11.04408,15.66119 34.24349,42.1044 37.07769,42.26205 0.4849,0.027 0.01,-3.70096 -1.0605,-8.28429 z M 296.2365,753.79733 c 14.54633,-11.6325 49.29456,-46.75993 73.20974,-74.00867 15.10131,-17.20629 36.90693,-40.97865 48.45693,-52.82747 11.55,-11.84882 21,-22.15086 21,-22.89344 0,-0.74257 -2.68145,-3.37021 -5.95877,-5.83919 -3.27733,-2.46898 -5.97733,-5.20365 -6,-6.07704 -0.0926,-3.5673 2.54627,-2.67211 8.51891,2.88987 3.65971,3.40808 7.10254,5.56554 8.2058,5.14218 2.27201,-0.87185 2.30758,-1.19251 0.50573,-4.55928 -2.28232,-4.26457 -0.0319,-5.77085 3.56847,-2.38848 l 3.22549,3.03019 15.37472,-15.92992 c 8.45609,-8.76145 16.37068,-17.57991 17.58799,-19.59658 2.2717,-3.76346 5.66265,-4.97293 5.60729,-2 -0.0171,0.91667 -7.84991,9.98383 -17.40631,20.14924 -9.55641,10.16542 -17.06366,18.7942 -16.68279,19.17507 0.74818,0.74818 25.62329,-22.35495 28.51558,-26.48427 0.96567,-1.37869 2.32174,-2.50671 3.0135,-2.50671 3.42797,0 -0.0712,4.62565 -14.26231,18.85385 l -15.52002,15.56057 2.9272,4.73631 c 1.60996,2.60497 7.16904,8.66361 12.35352,13.46364 l 9.42631,8.72732 5.67012,-4.33751 c 3.11856,-2.38563 15.19349,-11.49361 26.83317,-20.23995 11.63969,-8.74635 24.16307,-18.2107 27.82973,-21.03189 3.66667,-2.82119 16.11621,-12.412 27.66565,-21.31291 l 20.99898,-16.18347 -6.5217,-12.11798 c -29.59588,-54.9922 -35.2299,-66.49059 -35.0099,-71.45131 0.12179,-2.74622 -2.35701,-5.21211 -14.07326,-14 -7.82161,-5.86667 -21.7598,-16.68923 -30.97377,-24.05013 -9.21396,-7.3609 -19.62727,-15.35666 -23.14067,-17.76834 l -6.38801,-4.38488 -12.27866,7.85119 c -19.16898,12.25699 -23.82992,15.05478 -52.27866,31.38101 -14.66666,8.41694 -33.44236,18.69665 -41.72378,22.84379 -8.28141,4.14714 -15.27477,8.27235 -15.54081,9.16714 -0.26603,0.89479 -3.2228,10.62689 -6.5706,21.62689 -6.28901,20.66403 -12.22177,41.84466 -17.55314,62.66666 -6.40447,25.01309 -20.74071,79.26606 -38.93255,147.33334 -4.40983,16.5 -9.27851,35.1 -10.8193,41.33333 -1.54078,6.23333 -4.01414,15.51884 -5.49635,20.63446 l -2.69494,9.30113 10.3324,-10.07294 c 5.68282,-5.54013 12.43241,-11.7523 14.99907,-13.80482 z m 634.90546,-45.7245 c -5.89404,-6.41666 -17.50484,-18.26666 -25.80177,-26.33333 -8.29693,-8.06667 -11.49505,-10.76667 -7.10694,-6 10.14519,11.02037 42.47197,44 43.12901,44 0.27287,0 -4.32626,-5.25 -10.2203,-11.66667 z m -248.17287,-5.79587 c 1.53273,-3.0044 2.55808,-5.69123 2.27857,-5.97075 -0.27951,-0.27951 -1.81357,2.17863 -3.40902,5.46254 -3.63372,7.4793 -2.65127,7.92098 1.13045,0.50821 z m -13.39104,-5.61615 c 0.005,-0.87339 0.95225,-3.38798 2.10607,-5.58798 1.15382,-2.2 5.97918,-13.5467 10.72303,-25.21489 4.74384,-11.66819 9.86263,-23.9313 11.37508,-27.25134 1.51246,-3.32005 3.54563,-8.29173 4.51816,-11.04818 0.97254,-2.75646 4.80602,-12.18577 8.51885,-20.95404 3.71283,-8.76826 6.7506,-16.48043 6.7506,-17.13815 0,-0.65773 -11.49442,-10.16531 -25.54314,-21.12796 -14.04873,-10.96266 -30.69387,-23.9821 -36.98922,-28.9321 -6.29534,-4.95 -12.05093,-8.98953 -12.79019,-8.97672 -0.73927,0.0128 -5.45359,3.1628 -10.47627,7 l -9.13214,6.97672 -0.41737,11.33333 c -0.48951,13.29209 2.36074,24 6.38837,24 2.01376,0 2.27588,0.7369 1.58054,4.44338 -0.61427,3.27437 0.22443,7.04533 3.18788,14.33333 5.7067,14.03446 18.33098,47.62887 23.50785,62.55662 2.416,6.96667 6.2751,17.76667 8.57578,24 2.30068,6.23334 4.4619,12.12137 4.80273,13.08451 0.71707,2.0264 3.3012,0.85925 3.31339,-1.49653 z m -57.96693,-57.78689 c 1.92439,-10.79716 2.40009,-16.02023 1.36475,-14.9849 -0.32668,0.32668 -1.23733,4.77668 -2.02366,9.88889 -0.78634,5.11221 -1.78914,11.09492 -2.22846,13.29492 -0.43932,2.2 -0.38916,3.61049 0.11146,3.13443 0.50062,-0.47607 1.74978,-5.57607 2.77591,-11.33334 z m 190.63278,-4.47593 c 1.33138,-1.47116 2.13003,-2.9655 1.77478,-3.32076 -0.35526,-0.35526 -9.00158,-6.1266 -19.21405,-12.8252 -10.21247,-6.6986 -25.56821,-17.20425 -34.12387,-23.3459 -8.55567,-6.14165 -15.90567,-11.16663 -16.33334,-11.16663 -2.9448,0 1.51283,4.14293 17.43479,16.20396 10.01681,7.58782 24.56681,19.0146 32.33334,25.39284 7.76652,6.37824 14.47796,11.62824 14.9143,11.66667 0.43635,0.0384 1.88267,-1.13382 3.21405,-2.60498 z m 154.0828,-41.5288 c -1.49173,-6.12133 -4.8838,-17.12969 -7.53793,-24.46302 -7.55662,-20.87885 -18.60383,-57.51317 -25.29785,-83.89174 -3.36484,-13.25955 -6.82361,-24.79387 -7.68615,-25.63183 -0.86255,-0.83797 -2.81905,-1.89691 -4.34779,-2.35321 -2.64882,-0.79063 -2.73459,-0.49849 -1.82392,6.21231 1.32425,9.75841 8.31287,35.40089 13.35391,48.9978 2.311,6.23333 6.2018,16.73333 8.64622,23.33333 2.44442,6.6 6.91379,18.3 9.93193,26 12.08548,30.83294 16.00944,41.47339 16.10998,43.68471 0.0579,1.27341 0.38844,1.62365 0.73455,0.77832 0.3461,-0.84534 -0.59122,-6.54534 -2.08295,-12.66667 z M 719.61611,571.81436 c -0.42778,-0.69215 -6.61319,-5.36783 -13.74536,-10.39039 -21.7967,-15.34949 -22.38963,-15.03307 -1.57803,0.84213 13.08497,9.98129 17.16054,12.52085 15.32339,9.54826 z m 6.62843,-18.0099 c 5.5854,-15.67693 5.8468,-13.0561 -3.39769,-34.06496 -3.06554,-6.96667 -7.84696,-18.96667 -10.62538,-26.66667 -3.20256,-8.87544 -5.72336,-13.95041 -6.88668,-13.86453 -1.00925,0.0745 -9.98076,6.37451 -19.93668,14 -9.95592,7.62549 -21.76413,16.56453 -26.24046,19.86453 -4.47632,3.3 -7.99154,6.6 -7.81159,7.33334 0.32128,1.30932 11.73075,9.08123 37.76466,25.72457 7.21918,4.61518 17.02578,11.32695 21.79245,14.91506 4.76667,3.5881 9.0514,6.56204 9.52162,6.60876 0.47022,0.0467 3.08911,-6.18583 5.81975,-13.8501 z m 5.95165,-2.29637 c 1.47873,-3.06062 2.44134,-5.812 2.13915,-6.1142 -0.62298,-0.62298 -2.79976,3.1753 -4.73138,8.25586 -2.04576,5.38074 -0.37548,4.00079 2.59223,-2.14166 z m -117.29302,0.15272 c 0,-1.50995 -0.5738,-2.39073 -1.2751,-1.9573 -0.70131,0.43343 -0.93711,1.66884 -0.52402,2.74536 1.05764,2.75615 1.79912,2.43136 1.79912,-0.78806 z m -294.5313,-16.80655 c 2.15624,-7.94645 4.45246,-16.84809 5.1027,-19.78143 0.65024,-2.93333 2.46103,-9.75998 4.02398,-15.17034 1.56294,-5.41035 2.53249,-10.14623 2.15455,-10.52417 -0.37794,-0.37794 -0.94442,0.14872 -1.25886,1.17034 -3.6856,11.97498 -5.40546,18.28497 -10.06161,36.91518 -5.67472,22.70565 -5.91487,23.87218 -4.65533,22.61264 0.42577,-0.42577 2.53833,-7.27577 4.69457,-15.22222 z m 265.78905,-13.2836 c -4.14761,-10.90714 -9.36638,-25.40318 -11.59727,-32.21342 -3.83447,-11.70546 -4.46442,-12.70701 -11.525,-18.32343 -8.45736,-6.72751 -9.46881,-7.0705 -9.46881,-3.21093 0,4.96294 38.91645,78.66779 39.73275,75.25086 0.21968,-0.91956 -2.99407,-10.59595 -7.14167,-21.50308 z m 353.32545,2.05179 c -1.88577,-7.63562 -4.65085,-18.83539 -6.14463,-24.88838 -3.12966,-12.68184 -8.91156,-29.95758 -9.02702,-26.97181 -0.043,1.11252 3.54025,15.51252 7.96283,32 9.47909,35.33834 9.37982,35.00082 10.08663,34.29401 0.30297,-0.30298 -0.99204,-6.79819 -2.87781,-14.43382 z m -322.43835,3.19323 c 4.687,-3.44144 8.52182,-6.39019 8.52182,-6.55278 0,-0.76908 -31.10502,-24.52949 -31.54103,-24.09348 -0.90924,0.90923 12.04788,36.90341 13.28442,36.90341 0.66713,0 5.04778,-2.81572 9.73479,-6.25715 z m 116.52182,4.57413 c 0,-1.07229 -10.60243,-20.10992 -10.63159,-19.08999 -0.064,2.23736 8.3388,19.43968 9.49564,19.43968 0.62477,0 1.13595,-0.15736 1.13595,-0.34969 z m -77.24493,-35.31698 c 9.94048,-7.88333 23.85251,-18.53333 30.91562,-23.66666 7.06312,-5.13334 12.87667,-9.80639 12.919,-10.38456 0.0841,-1.14876 -9.25757,-22.4336 -16.78941,-38.25435 l -4.74752,-9.97223 -2.68375,3.30557 c -1.47605,1.81806 -4.09,5.09849 -5.80877,7.28984 -2.34695,2.99224 -3.5051,3.6042 -4.6515,2.4578 -1.1464,-1.1464 -0.16314,-3.0055 3.94906,-7.46671 6.21608,-6.74365 6.54628,-7.64203 2.80886,-7.64203 -3.17591,0 -3.44309,-1.69577 -0.63444,-4.02674 3.89843,-3.23541 0.80321,-2.85074 -4.15126,0.51591 -4.67873,3.17928 -7.2143,3.49716 -7.2143,0.90447 0,-0.61361 3,-3.04075 6.66667,-5.39364 3.66667,-2.35289 6.66667,-4.79904 6.66667,-5.43588 0,-0.63684 -1.58623,-4.50806 -3.52496,-8.60272 -2.33667,-4.93511 -3.07801,-7.89176 -2.19913,-8.77065 0.87888,-0.87888 2.62902,1.28143 5.19162,6.40838 2.31201,4.62556 4.87506,7.92123 6.3768,8.19952 2.10897,0.39081 2.36929,-0.0993 1.62588,-3.06132 -1.22883,-4.89604 0.23596,-6.74988 3.20807,-4.06015 2.24961,2.03587 2.47166,2.00111 3.26922,-0.51177 0.47062,-1.4828 1.57496,-2.42596 2.45409,-2.0959 0.87912,0.33005 3.30606,-0.77006 5.39319,-2.44468 l 3.79477,-3.04478 -5.02061,-8.62336 c -9.28192,-15.94253 -20.17104,-31.28691 -25.83227,-36.40149 l -5.61964,-5.077 -16.66229,0.42756 -16.66228,0.42757 -8.22957,16.08779 c -4.52626,8.84828 -10.71763,21.44828 -13.75861,28 -3.04097,6.55172 -10.15063,21.81221 -15.79924,33.91221 -15.60172,33.42077 -14.66848,28.83197 -9.4695,46.56202 3.67191,12.52232 5.14333,15.72118 8.27966,18 2.09779,1.52422 13.33653,10.42132 24.97498,19.77132 11.63845,9.35 21.55017,17 22.02605,17 0.47589,0 8.99836,-6.45 18.93884,-14.33334 z M 373.09932,459.50854 c 35.59505,-18.53861 99.71913,-57.08157 96.70129,-58.1241 -0.84845,-0.2931 -43.55533,23.27088 -80.23077,44.2682 -24.56737,14.06524 -36.48125,22.08686 -32.80385,22.08686 0.29122,0 7.64122,-3.70393 16.33333,-8.23096 z m 570.54901,2.18856 c -1.42349,-1.07668 -3.22349,-1.93634 -4,-1.91035 -0.7765,0.026 0.0882,0.90472 1.92151,1.95275 4.319,2.46897 5.37046,2.44752 2.07849,-0.0424 z m -64.91822,-42.37255 c -12.26919,-9.04219 -31.30317,-20.69549 -44.94259,-27.51551 -8.07459,-4.03748 -8.59669,-4.1279 -11.78235,-2.04057 -1.83335,1.20126 -2.97228,2.54519 -2.53095,2.98652 1.31071,1.31071 67.98075,34.87693 69.38481,34.93301 0.70905,0.0283 -3.84896,-3.73523 -10.12892,-8.36345 z M 584.05622,392.09664 c 5.40715,-10.7115 10.84686,-23.02381 10.17217,-23.02381 -2.18877,0 -18.08608,34.21134 -17.89794,38.51672 0.0517,1.18247 0.87055,0.0435 1.81974,-2.53097 0.94918,-2.5745 3.60689,-8.40738 5.90603,-12.96194 z m 118.32166,7.30953 c 4.45842,-3.47315 6.51875,-5.82687 5.32259,-6.08053 -3.54097,-0.7509 -15.46397,7.18615 -15.46397,10.29425 0,2.66692 2.80482,1.50153 10.14138,-4.21372 z M 452.2365,389.41308 c 0,-0.92047 -0.40177,-1.67358 -0.89282,-1.67358 -1.37295,0 -17.70298,12.53861 -17.74064,13.62171 -0.0183,0.52527 4.1668,-1.57162 9.30013,-4.65976 5.13333,-3.08814 9.33333,-6.3679 9.33333,-7.28837 z m 365.25484,-2.85489 c 0.3235,-0.0836 -0.5748,-1.00241 -1.99622,-2.04178 -2.53248,-1.8518 -5.92528,-0.72199 -5.92528,1.97313 0,0.8657 4.68088,0.90627 7.9215,0.0686 z m -93.81399,-10.69988 c -1.26818,-1.40133 -5.89064,-5.36429 -10.27214,-8.80659 -7.07904,-5.56161 -7.69917,-5.82671 -5.56753,-2.38005 4.21715,6.81876 11.58451,13.54699 14.93881,13.64285 3.07323,0.0878 3.11071,-0.0144 0.90086,-2.45621 z m -35.85046,-47.45214 c -0.76651,-3.34969 -2.14263,-6 -3.11536,-6 -1.78796,0 -0.97671,3.41321 2.23968,9.42308 2.13856,3.99594 2.36808,3.09872 0.87568,-3.42308 z m -44.25705,-14.708 c -4.23152,-3.46853 -6,-4.07798 -6,-2.06772 0,0.67336 -0.3642,2.17336 -0.80932,3.33333 -0.66318,1.72821 0.2397,2.10039 5,2.0611 l 5.80932,-0.0479 z"
       id="path1" />
  </g>
</svg>
